# Blender 3.6.4
# www.blender.org
o Circle.001
v 0.000000 -0.000000 -2.033190
v -0.396656 -0.000000 -1.994122
v -0.778068 -0.000000 -1.878422
v -1.129580 -0.000000 -1.690535
v -1.437682 -0.000000 -1.437682
v -1.690535 -0.000000 -1.129580
v -1.878422 -0.000000 -0.778068
v -1.994122 -0.000000 -0.396656
v -2.033190 0.000000 0.000000
v -1.994122 0.000000 0.396656
v -1.878422 0.000000 0.778068
v -1.690535 0.000000 1.129580
v -1.437682 0.000000 1.437682
v -1.129580 0.000000 1.690535
v -0.778068 0.000000 1.878422
v -0.396656 0.000000 1.994122
v 0.000000 0.000000 2.033190
v 0.396656 0.000000 1.994122
v 0.778068 0.000000 1.878422
v 1.129580 0.000000 1.690535
v 1.437682 0.000000 1.437682
v 1.690535 0.000000 1.129580
v 1.878422 0.000000 0.778068
v 1.994122 0.000000 0.396656
v 2.033190 0.000000 0.000000
v 1.994122 -0.000000 -0.396656
v 1.878422 -0.000000 -0.778068
v 1.690535 -0.000000 -1.129580
v 1.437682 -0.000000 -1.437682
v 1.129580 -0.000000 -1.690535
v 0.778068 -0.000000 -1.878422
v 0.396656 -0.000000 -1.994122
v -0.000000 -0.001391 -1.162830
v -0.226857 -0.001390 -1.140486
v -0.444996 -0.001390 -1.074314
v -0.646034 -0.001390 -0.966858
v -0.822245 -0.001390 -0.822245
v -0.966858 -0.001390 -0.646034
v -1.074314 -0.001390 -0.444996
v -1.140486 -0.001390 -0.226857
v -1.162830 -0.001390 -0.000000
v -1.140486 -0.001390 0.226857
v -1.074314 -0.001390 0.444996
v -0.966858 -0.001390 0.646034
v -0.822245 -0.001390 0.822245
v -0.646034 -0.001390 0.966858
v -0.444996 -0.001390 1.074314
v -0.226857 -0.001390 1.140486
v -0.000000 -0.001390 1.162830
v 0.226857 -0.001390 1.140486
v 0.444996 -0.001390 1.074314
v 0.646034 -0.001390 0.966858
v 0.822245 -0.001390 0.822245
v 0.966858 -0.001390 0.646034
v 1.074314 -0.001390 0.444996
v 1.140486 -0.001390 0.226857
v 1.162830 -0.001390 -0.000000
v 1.140486 -0.001390 -0.226857
v 1.074314 -0.001390 -0.444996
v 0.966858 -0.001390 -0.646034
v 0.822245 -0.001390 -0.822245
v 0.646034 -0.001390 -0.966858
v 0.444996 -0.001390 -1.074314
v 0.226857 -0.001390 -1.140486
v 0.000000 -0.011750 -2.033190
v -0.396656 -0.011750 -1.994122
v -0.778068 -0.011750 -1.878422
v -1.129580 -0.011750 -1.690535
v -1.437682 -0.011750 -1.437682
v -1.690535 -0.011750 -1.129580
v -1.878422 -0.011750 -0.778068
v -1.994122 -0.011750 -0.396656
v -2.033190 -0.011750 0.000000
v -1.994122 -0.011750 0.396656
v -1.878422 -0.011750 0.778068
v -1.690535 -0.011750 1.129580
v -1.437682 -0.011750 1.437682
v -1.129580 -0.011750 1.690535
v -0.778068 -0.011750 1.878422
v -0.396656 -0.011750 1.994122
v 0.000000 -0.011750 2.033190
v 0.396656 -0.011750 1.994122
v 0.778068 -0.011750 1.878422
v 1.129580 -0.011750 1.690535
v 1.437682 -0.011750 1.437682
v 1.690535 -0.011750 1.129580
v 1.878422 -0.011750 0.778068
v 1.994122 -0.011750 0.396656
v 2.033190 -0.011750 0.000000
v 1.994122 -0.011750 -0.396656
v 1.878422 -0.011750 -0.778068
v 1.690535 -0.011750 -1.129580
v 1.437682 -0.011750 -1.437682
v 1.129580 -0.011750 -1.690535
v 0.778068 -0.011750 -1.878422
v 0.396656 -0.011750 -1.994122
v -0.000000 -0.010360 -1.162830
v -0.226857 -0.010360 -1.140486
v -0.444996 -0.010360 -1.074314
v -0.646034 -0.010360 -0.966858
v -0.822245 -0.010360 -0.822245
v -0.966858 -0.010360 -0.646034
v -1.074314 -0.010360 -0.444996
v -1.140486 -0.010360 -0.226857
v -1.162830 -0.010360 0.000000
v -1.140486 -0.010360 0.226857
v -1.074314 -0.010360 0.444996
v -0.966858 -0.010360 0.646034
v -0.822245 -0.010360 0.822245
v -0.646034 -0.010360 0.966858
v -0.444996 -0.010360 1.074314
v -0.226857 -0.010359 1.140486
v -0.000000 -0.010359 1.162830
v 0.226857 -0.010359 1.140486
v 0.444996 -0.010360 1.074314
v 0.646034 -0.010360 0.966858
v 0.822245 -0.010360 0.822245
v 0.966858 -0.010360 0.646034
v 1.074314 -0.010360 0.444996
v 1.140486 -0.010360 0.226857
v 1.162830 -0.010360 0.000000
v 1.140486 -0.010360 -0.226857
v 1.074314 -0.010360 -0.444996
v 0.966858 -0.010360 -0.646034
v 0.822245 -0.010360 -0.822245
v 0.646034 -0.010360 -0.966858
v 0.444996 -0.010360 -1.074314
v 0.226857 -0.010360 -1.140486
vn 0.0005 1.0000 -0.0015
vn 0.0005 1.0000 0.0015
vn -0.0010 1.0000 0.0012
vn 0.0002 1.0000 -0.0016
vn 0.0008 1.0000 0.0014
vn -0.0008 1.0000 0.0014
vn -0.0002 1.0000 -0.0016
vn 0.0010 1.0000 0.0012
vn -0.0005 1.0000 0.0015
vn -0.0005 1.0000 -0.0015
vn 0.0012 1.0000 0.0010
vn -0.0002 1.0000 0.0016
vn -0.0008 1.0000 -0.0014
vn 0.0014 1.0000 0.0008
vn -0.0010 1.0000 -0.0012
vn 0.0015 1.0000 0.0005
vn -0.0012 1.0000 -0.0010
vn 0.0016 1.0000 0.0002
vn -0.0014 1.0000 -0.0008
vn 0.0016 1.0000 -0.0002
vn -0.0015 1.0000 -0.0005
vn 0.0015 1.0000 -0.0005
vn -0.0016 1.0000 -0.0002
vn 0.0014 1.0000 -0.0008
vn -0.0016 1.0000 0.0002
vn 0.0012 1.0000 -0.0010
vn -0.0015 1.0000 0.0005
vn 0.0010 1.0000 -0.0012
vn -0.0014 1.0000 0.0008
vn 0.0008 1.0000 -0.0014
vn 0.0002 1.0000 0.0016
vn -0.0012 1.0000 0.0010
vn 0.0005 -1.0000 -0.0015
vn 0.0005 -1.0000 0.0015
vn -0.0010 -1.0000 0.0012
vn 0.0002 -1.0000 -0.0016
vn 0.0008 -1.0000 0.0014
vn -0.0008 -1.0000 0.0014
vn -0.0002 -1.0000 -0.0016
vn 0.0010 -1.0000 0.0012
vn -0.0005 -1.0000 0.0015
vn -0.0005 -1.0000 -0.0015
vn 0.0012 -1.0000 0.0010
vn -0.0002 -1.0000 0.0016
vn -0.0008 -1.0000 -0.0014
vn 0.0014 -1.0000 0.0008
vn -0.0010 -1.0000 -0.0012
vn 0.0015 -1.0000 0.0005
vn -0.0012 -1.0000 -0.0010
vn 0.0016 -1.0000 0.0002
vn -0.0014 -1.0000 -0.0008
vn 0.0016 -1.0000 -0.0002
vn -0.0015 -1.0000 -0.0005
vn 0.0015 -1.0000 -0.0005
vn -0.0016 -1.0000 -0.0002
vn 0.0014 -1.0000 -0.0008
vn -0.0016 -1.0000 0.0002
vn 0.0012 -1.0000 -0.0010
vn -0.0015 -1.0000 0.0005
vn 0.0010 -1.0000 -0.0012
vn -0.0014 -1.0000 0.0008
vn 0.0008 -1.0000 -0.0014
vn 0.0002 -1.0000 0.0016
vn -0.0012 -1.0000 0.0010
vn 0.9952 -0.0000 -0.0980
vn -0.2903 -0.0000 0.9569
vn 0.9569 -0.0000 -0.2903
vn -0.0980 -0.0000 0.9952
vn 0.8819 -0.0000 -0.4714
vn 0.0980 -0.0000 0.9952
vn 0.7730 -0.0000 -0.6344
vn 0.2903 -0.0000 0.9569
vn 0.6344 -0.0000 -0.7730
vn 0.4714 -0.0000 0.8819
vn 0.4714 -0.0000 -0.8819
vn 0.6344 -0.0000 0.7730
vn 0.2903 -0.0000 -0.9569
vn 0.7730 -0.0000 0.6344
vn 0.0980 -0.0000 -0.9952
vn 0.8819 -0.0000 0.4714
vn -0.0980 -0.0000 -0.9952
vn 0.9569 -0.0000 0.2903
vn -0.2903 -0.0000 -0.9569
vn 0.9952 -0.0000 0.0980
vn -0.4714 -0.0000 -0.8819
vn -0.6344 -0.0000 -0.7730
vn -0.7730 -0.0000 -0.6344
vn -0.8819 -0.0000 -0.4714
vn -0.9569 -0.0000 -0.2903
vn -0.9952 -0.0000 -0.0980
vn -0.9952 -0.0000 0.0980
vn -0.9569 -0.0000 0.2903
vn -0.8819 -0.0000 0.4714
vn -0.7730 -0.0000 0.6344
vn -0.6344 -0.0000 0.7730
vn -0.4714 -0.0000 0.8819
vt 0.995883 -0.011852
vt 0.004118 1.011852
vt 0.004119 -0.011852
vt 0.995883 1.011852
s 0
f 48/1/1 15/2/1 16/3/1
f 3/3/2 34/4/2 2/2/2
f 62/1/3 29/2/3 30/3/3
f 49/1/4 16/2/4 17/3/4
f 36/1/5 3/2/5 4/3/5
f 31/3/6 62/4/6 30/2/6
f 18/3/7 49/4/7 17/2/7
f 37/1/8 4/2/8 5/3/8
f 64/1/9 31/2/9 32/3/9
f 19/3/10 50/4/10 18/2/10
f 38/1/11 5/2/11 6/3/11
f 33/1/12 32/2/12 1/3/12
f 52/1/13 19/2/13 20/3/13
f 7/3/14 38/4/14 6/2/14
f 53/1/15 20/2/15 21/3/15
f 40/1/16 7/2/16 8/3/16
f 54/1/17 21/2/17 22/3/17
f 41/1/18 8/2/18 9/3/18
f 23/3/19 54/4/19 22/2/19
f 10/3/20 41/4/20 9/2/20
f 56/1/21 23/2/21 24/3/21
f 43/1/22 10/2/22 11/3/22
f 57/1/23 24/2/23 25/3/23
f 44/1/24 11/2/24 12/3/24
f 26/3/25 57/4/25 25/2/25
f 13/3/26 44/4/26 12/2/26
f 59/1/27 26/2/27 27/3/27
f 46/1/28 13/2/28 14/3/28
f 60/1/29 27/2/29 28/3/29
f 15/3/30 46/4/30 14/2/30
f 2/3/31 33/4/31 1/2/31
f 29/3/32 60/4/32 28/2/32
f 79/2/33 112/1/33 80/3/33
f 66/2/34 99/1/34 67/3/34
f 93/2/35 126/1/35 94/3/35
f 80/2/36 113/1/36 81/3/36
f 67/2/37 100/1/37 68/3/37
f 95/3/38 126/4/38 127/1/38
f 82/3/39 113/4/39 114/1/39
f 69/3/40 100/4/40 101/1/40
f 95/2/41 128/1/41 96/3/41
f 82/2/42 115/1/42 83/3/42
f 69/2/43 102/1/43 70/3/43
f 96/2/44 97/1/44 65/3/44
f 83/2/45 116/1/45 84/3/45
f 71/3/46 102/4/46 103/1/46
f 85/3/47 116/4/47 117/1/47
f 71/2/48 104/1/48 72/3/48
f 85/2/49 118/1/49 86/3/49
f 72/2/50 105/1/50 73/3/50
f 87/3/51 118/4/51 119/1/51
f 74/3/52 105/4/52 106/1/52
f 87/2/53 120/1/53 88/3/53
f 74/2/54 107/1/54 75/3/54
f 88/2/55 121/1/55 89/3/55
f 75/2/56 108/1/56 76/3/56
f 90/3/57 121/4/57 122/1/57
f 77/3/58 108/4/58 109/1/58
f 90/2/59 123/1/59 91/3/59
f 77/2/60 110/1/60 78/3/60
f 91/2/61 124/1/61 92/3/61
f 79/3/62 110/4/62 111/1/62
f 66/3/63 97/4/63 98/1/63
f 93/3/64 124/4/64 125/1/64
f 42/1/65 105/4/65 41/4/65
f 15/2/66 80/3/66 16/3/66
f 43/1/67 106/4/67 42/4/67
f 16/2/68 81/3/68 17/3/68
f 44/1/69 107/4/69 43/4/69
f 17/2/70 82/3/70 18/3/70
f 45/1/71 108/4/71 44/4/71
f 18/2/72 83/3/72 19/3/72
f 46/1/73 109/4/73 45/4/73
f 19/2/74 84/3/74 20/3/74
f 47/1/75 110/4/75 46/4/75
f 20/2/76 85/3/76 21/3/76
f 48/1/77 111/4/77 47/4/77
f 21/2/78 86/3/78 22/3/78
f 49/1/79 112/4/79 48/4/79
f 22/2/80 87/3/80 23/3/80
f 50/1/81 113/4/81 49/4/81
f 23/2/82 88/3/82 24/3/82
f 51/1/83 114/4/83 50/4/83
f 24/2/84 89/3/84 25/3/84
f 52/1/85 115/4/85 51/4/85
f 25/2/65 90/3/65 26/3/65
f 53/1/86 116/4/86 52/4/86
f 26/2/67 91/3/67 27/3/67
f 54/1/87 117/4/87 53/4/87
f 27/2/69 92/3/69 28/3/69
f 1/2/81 66/3/81 2/3/81
f 55/1/88 118/4/88 54/4/88
f 28/2/71 93/3/71 29/3/71
f 2/2/83 67/3/83 3/3/83
f 56/1/89 119/4/89 55/4/89
f 29/2/73 94/3/73 30/3/73
f 3/2/85 68/3/85 4/3/85
f 57/1/90 120/4/90 56/4/90
f 30/2/75 95/3/75 31/3/75
f 4/2/86 69/3/86 5/3/86
f 58/1/91 121/4/91 57/4/91
f 31/2/77 96/3/77 32/3/77
f 5/2/87 70/3/87 6/3/87
f 59/1/92 122/4/92 58/4/92
f 32/2/79 65/3/79 1/3/79
f 6/2/88 71/3/88 7/3/88
f 60/1/93 123/4/93 59/4/93
f 34/1/70 97/4/70 33/4/70
f 7/2/89 72/3/89 8/3/89
f 61/1/94 124/4/94 60/4/94
f 35/1/72 98/4/72 34/4/72
f 8/2/90 73/3/90 9/3/90
f 62/1/95 125/4/95 61/4/95
f 36/1/74 99/4/74 35/4/74
f 9/2/91 74/3/91 10/3/91
f 63/1/96 126/4/96 62/4/96
f 37/1/76 100/4/76 36/4/76
f 10/2/92 75/3/92 11/3/92
f 64/1/66 127/4/66 63/4/66
f 38/1/78 101/4/78 37/4/78
f 11/2/93 76/3/93 12/3/93
f 33/1/68 128/4/68 64/4/68
f 39/1/80 102/4/80 38/4/80
f 12/2/94 77/3/94 13/3/94
f 40/1/82 103/4/82 39/4/82
f 13/2/95 78/3/95 14/3/95
f 41/1/84 104/4/84 40/4/84
f 14/2/96 79/3/96 15/3/96
f 48/1/1 47/4/1 15/2/1
f 3/3/2 35/1/2 34/4/2
f 62/1/3 61/4/3 29/2/3
f 49/1/4 48/4/4 16/2/4
f 36/1/5 35/4/5 3/2/5
f 31/3/6 63/1/6 62/4/6
f 18/3/7 50/1/7 49/4/7
f 37/1/8 36/4/8 4/2/8
f 64/1/9 63/4/9 31/2/9
f 19/3/10 51/1/10 50/4/10
f 38/1/11 37/4/11 5/2/11
f 33/1/12 64/4/12 32/2/12
f 52/1/13 51/4/13 19/2/13
f 7/3/14 39/1/14 38/4/14
f 53/1/15 52/4/15 20/2/15
f 40/1/16 39/4/16 7/2/16
f 54/1/17 53/4/17 21/2/17
f 41/1/18 40/4/18 8/2/18
f 23/3/19 55/1/19 54/4/19
f 10/3/20 42/1/20 41/4/20
f 56/1/21 55/4/21 23/2/21
f 43/1/22 42/4/22 10/2/22
f 57/1/23 56/4/23 24/2/23
f 44/1/24 43/4/24 11/2/24
f 26/3/25 58/1/25 57/4/25
f 13/3/26 45/1/26 44/4/26
f 59/1/27 58/4/27 26/2/27
f 46/1/28 45/4/28 13/2/28
f 60/1/29 59/4/29 27/2/29
f 15/3/30 47/1/30 46/4/30
f 2/3/31 34/1/31 33/4/31
f 29/3/32 61/1/32 60/4/32
f 79/2/33 111/4/33 112/1/33
f 66/2/34 98/4/34 99/1/34
f 93/2/35 125/4/35 126/1/35
f 80/2/36 112/4/36 113/1/36
f 67/2/37 99/4/37 100/1/37
f 95/3/38 94/2/38 126/4/38
f 82/3/39 81/2/39 113/4/39
f 69/3/40 68/2/40 100/4/40
f 95/2/41 127/4/41 128/1/41
f 82/2/42 114/4/42 115/1/42
f 69/2/43 101/4/43 102/1/43
f 96/2/44 128/4/44 97/1/44
f 83/2/45 115/4/45 116/1/45
f 71/3/46 70/2/46 102/4/46
f 85/3/47 84/2/47 116/4/47
f 71/2/48 103/4/48 104/1/48
f 85/2/49 117/4/49 118/1/49
f 72/2/50 104/4/50 105/1/50
f 87/3/51 86/2/51 118/4/51
f 74/3/52 73/2/52 105/4/52
f 87/2/53 119/4/53 120/1/53
f 74/2/54 106/4/54 107/1/54
f 88/2/55 120/4/55 121/1/55
f 75/2/56 107/4/56 108/1/56
f 90/3/57 89/2/57 121/4/57
f 77/3/58 76/2/58 108/4/58
f 90/2/59 122/4/59 123/1/59
f 77/2/60 109/4/60 110/1/60
f 91/2/61 123/4/61 124/1/61
f 79/3/62 78/2/62 110/4/62
f 66/3/63 65/2/63 97/4/63
f 93/3/64 92/2/64 124/4/64
f 42/1/65 106/1/65 105/4/65
f 15/2/66 79/2/66 80/3/66
f 43/1/67 107/1/67 106/4/67
f 16/2/68 80/2/68 81/3/68
f 44/1/69 108/1/69 107/4/69
f 17/2/70 81/2/70 82/3/70
f 45/1/71 109/1/71 108/4/71
f 18/2/72 82/2/72 83/3/72
f 46/1/73 110/1/73 109/4/73
f 19/2/74 83/2/74 84/3/74
f 47/1/75 111/1/75 110/4/75
f 20/2/76 84/2/76 85/3/76
f 48/1/77 112/1/77 111/4/77
f 21/2/78 85/2/78 86/3/78
f 49/1/79 113/1/79 112/4/79
f 22/2/80 86/2/80 87/3/80
f 50/1/81 114/1/81 113/4/81
f 23/2/82 87/2/82 88/3/82
f 51/1/83 115/1/83 114/4/83
f 24/2/84 88/2/84 89/3/84
f 52/1/85 116/1/85 115/4/85
f 25/2/65 89/2/65 90/3/65
f 53/1/86 117/1/86 116/4/86
f 26/2/67 90/2/67 91/3/67
f 54/1/87 118/1/87 117/4/87
f 27/2/69 91/2/69 92/3/69
f 1/2/81 65/2/81 66/3/81
f 55/1/88 119/1/88 118/4/88
f 28/2/71 92/2/71 93/3/71
f 2/2/83 66/2/83 67/3/83
f 56/1/89 120/1/89 119/4/89
f 29/2/73 93/2/73 94/3/73
f 3/2/85 67/2/85 68/3/85
f 57/1/90 121/1/90 120/4/90
f 30/2/75 94/2/75 95/3/75
f 4/2/86 68/2/86 69/3/86
f 58/1/91 122/1/91 121/4/91
f 31/2/77 95/2/77 96/3/77
f 5/2/87 69/2/87 70/3/87
f 59/1/92 123/1/92 122/4/92
f 32/2/79 96/2/79 65/3/79
f 6/2/88 70/2/88 71/3/88
f 60/1/93 124/1/93 123/4/93
f 34/1/70 98/1/70 97/4/70
f 7/2/89 71/2/89 72/3/89
f 61/1/94 125/1/94 124/4/94
f 35/1/72 99/1/72 98/4/72
f 8/2/90 72/2/90 73/3/90
f 62/1/95 126/1/95 125/4/95
f 36/1/74 100/1/74 99/4/74
f 9/2/91 73/2/91 74/3/91
f 63/1/96 127/1/96 126/4/96
f 37/1/76 101/1/76 100/4/76
f 10/2/92 74/2/92 75/3/92
f 64/1/66 128/1/66 127/4/66
f 38/1/78 102/1/78 101/4/78
f 11/2/93 75/2/93 76/3/93
f 33/1/68 97/1/68 128/4/68
f 39/1/80 103/1/80 102/4/80
f 12/2/94 76/2/94 77/3/94
f 40/1/82 104/1/82 103/4/82
f 13/2/95 77/2/95 78/3/95
f 41/1/84 105/1/84 104/4/84
f 14/2/96 78/2/96 79/3/96
